<?xml version="1.0" encoding="UTF-8" standalone="no"?>
<svg width="260px" height="260px" viewBox="0 0 260 260" version="1.1" xmlns="http://www.w3.org/2000/svg" xmlns:xlink="http://www.w3.org/1999/xlink" xmlns:sketch="http://www.bohemiancoding.com/sketch/ns">
    <!-- Generator: Sketch 3.4.4 (17249) - http://www.bohemiancoding.com/sketch -->
    <title>Slice 1</title>
    <desc>Created with Sketch.</desc>
    <defs></defs>
    <g id="Page-1" stroke="none" stroke-width="1" fill="none" fill-rule="evenodd" sketch:type="MSPage">
        <g id="Boolean" sketch:type="MSLayerGroup" transform="translate(40.000000, 42.000000)" fill="#D8D8D8">
            <path d="M11.7685547,53.6103516 C9.32713623,53.6103516 7.4228584,52.9104888 6.05566406,51.5107422 C4.68846973,50.1109956 4.00488281,48.1660281 4.00488281,45.6757812 L4.00488281,30.0996094 L0.684570312,30.0996094 L0.684570312,26.4863281 L4.00488281,26.4863281 L4.00488281,21.6767578 L8.81445312,21.2128906 L8.81445312,26.4863281 L15.7480469,26.4863281 L15.7480469,30.0996094 L8.81445312,30.0996094 L8.81445312,44.796875 C8.81445312,48.2636892 10.311834,49.9970703 13.3066406,49.9970703 C13.9414094,49.9970703 14.7145137,49.8912771 15.6259766,49.6796875 L15.6259766,53 C14.1448494,53.4069031 12.8590549,53.6103516 11.7685547,53.6103516 L11.7685547,53.6103516 Z M22.5107422,53 L22.5107422,26.4863281 L27.3203125,26.4863281 L27.3203125,31.4667969 C29.2246189,27.7558408 31.9915183,25.9003906 35.6210938,25.9003906 C36.1093774,25.9003906 36.6220676,25.9410803 37.1591797,26.0224609 L37.1591797,30.5146484 C36.3290974,30.2379543 35.5966829,30.0996094 34.9619141,30.0996094 C31.9182791,30.0996094 29.371104,31.9062319 27.3203125,35.5195312 L27.3203125,53 L22.5107422,53 Z M59.546875,53 L59.546875,48.0195312 C56.9915237,51.7467634 53.8909687,53.6103516 50.2451172,53.6103516 C47.9339077,53.6103516 46.0947334,52.882006 44.7275391,51.425293 C43.3603447,49.96858 42.6767578,48.0032676 42.6767578,45.5292969 L42.6767578,26.4863281 L47.4863281,26.4863281 L47.4863281,43.9667969 C47.4863281,45.9524839 47.775225,47.3644164 48.3530273,48.2026367 C48.9308297,49.0408571 49.8951755,49.4599609 51.2460938,49.4599609 C54.1757959,49.4599609 56.9426953,47.5312693 59.546875,43.6738281 L59.546875,26.4863281 L64.3564453,26.4863281 L64.3564453,53 L59.546875,53 Z M93.4335938,52.1455078 C90.2109214,53.1220752 87.4521599,53.6103516 85.1572266,53.6103516 C81.250957,53.6103516 78.0649537,52.3123502 75.5991211,49.7163086 C73.1332885,47.120267 71.9003906,43.755229 71.9003906,39.6210938 C71.9003906,35.6008914 72.9868055,32.3050259 75.159668,29.7333984 C77.3325304,27.161771 80.1116367,25.8759766 83.4970703,25.8759766 C86.7034666,25.8759766 89.1814691,27.0152881 90.9311523,29.2939453 C92.6808356,31.5726025 93.5556641,34.8115024 93.5556641,39.0107422 L93.53125,40.5 L76.8076172,40.5 C77.5074905,46.7988596 80.5917695,49.9482422 86.0605469,49.9482422 C88.06251,49.9482422 90.5201677,49.4111382 93.4335938,48.3369141 L93.4335938,52.1455078 Z M77.0273438,36.8867188 L88.7216797,36.8867188 C88.7216797,31.9550535 86.8825054,29.4892578 83.2041016,29.4892578 C79.5094216,29.4892578 77.4505229,31.9550535 77.0273438,36.8867188 L77.0273438,36.8867188 Z" id="true" sketch:type="MSShapeGroup"></path>
            <rect id="Rectangle-49" sketch:type="MSShapeGroup" transform="translate(100.000000, 78.000000) rotate(-315.000000) translate(-100.000000, -78.000000) " x="90" y="-22" width="20" height="200"></rect>
            <path d="M97.546875,152.099609 L97.546875,175 L92.7128906,175 L92.7128906,152.099609 L88.953125,152.099609 L88.953125,148.486328 L92.7128906,148.486328 L92.7128906,145.3125 C92.7128906,138.997364 95.5937212,135.839844 101.355469,135.839844 C102.966805,135.839844 104.797841,136.108396 106.848633,136.645508 L106.848633,140.454102 C104.683908,139.786781 102.950527,139.453125 101.648438,139.453125 C100.069654,139.453125 98.9913766,139.831539 98.4135742,140.588379 C97.8357719,141.345219 97.546875,142.749013 97.546875,144.799805 L97.546875,148.486328 L104.163086,148.486328 L104.163086,152.099609 L97.546875,152.099609 Z M123.865234,171.630859 C120.984361,174.283867 118.209323,175.610352 115.540039,175.610352 C113.342762,175.610352 111.519864,174.922696 110.071289,173.547363 C108.622714,172.172031 107.898438,170.434581 107.898438,168.334961 C107.898438,165.437811 109.115059,163.212085 111.54834,161.657715 C113.98162,160.103345 117.468727,159.326172 122.009766,159.326172 L123.157227,159.326172 L123.157227,156.12793 C123.157227,153.051742 121.578466,151.513672 118.420898,151.513672 C115.881823,151.513672 113.139338,152.294914 110.193359,153.857422 L110.193359,149.87793 C113.432308,148.559564 116.467759,147.900391 119.299805,147.900391 C122.262059,147.900391 124.447096,148.567702 125.85498,149.902344 C127.262865,151.236986 127.966797,153.31216 127.966797,156.12793 L127.966797,168.139648 C127.966797,170.890313 128.813143,172.265625 130.505859,172.265625 C130.717449,172.265625 131.026691,172.233073 131.433594,172.167969 L131.775391,174.829102 C130.68489,175.349938 129.480475,175.610352 128.162109,175.610352 C125.916004,175.610352 124.483727,174.283867 123.865234,171.630859 L123.865234,171.630859 Z M123.157227,169.018555 L123.157227,162.158203 L121.545898,162.109375 C118.909167,162.109375 116.777026,162.609858 115.149414,163.61084 C113.521802,164.611821 112.708008,165.926099 112.708008,167.553711 C112.708008,168.709316 113.114905,169.685868 113.928711,170.483398 C114.742517,171.280928 115.735346,171.679688 116.907227,171.679688 C118.90919,171.679688 120.992502,170.792652 123.157227,169.018555 L123.157227,169.018555 Z M137.805664,175 L137.805664,136.450195 L142.615234,136.450195 L142.615234,175 L137.805664,175 Z M159.290039,175.610352 C157.092762,175.610352 154.423518,175.097661 151.282227,174.072266 L151.282227,169.65332 C154.423518,171.215828 157.157866,171.99707 159.485352,171.99707 C160.868822,171.99707 162.016271,171.622725 162.927734,170.874023 C163.839197,170.125322 164.294922,169.189459 164.294922,168.066406 C164.294922,166.422518 163.017265,165.063482 160.461914,163.989258 L157.654297,162.792969 C153.503885,161.0677 151.428711,158.585628 151.428711,155.34668 C151.428711,153.03547 152.246574,151.216641 153.882324,149.890137 C155.518075,148.563633 157.760077,147.900391 160.608398,147.900391 C162.089526,147.900391 163.920562,148.103839 166.101562,148.510742 L167.102539,148.706055 L167.102539,152.709961 C164.416979,151.912431 162.284839,151.513672 160.706055,151.513672 C157.613591,151.513672 156.067383,152.636708 156.067383,154.882812 C156.067383,156.331387 157.239246,157.552078 159.583008,158.544922 L161.902344,159.521484 C164.5228,160.628261 166.37825,161.796055 167.46875,163.024902 C168.55925,164.25375 169.104492,165.787751 169.104492,167.626953 C169.104492,169.954439 168.184905,171.866854 166.345703,173.364258 C164.506501,174.861661 162.154637,175.610352 159.290039,175.610352 L159.290039,175.610352 Z M197.180664,174.145508 C193.957992,175.122075 191.19923,175.610352 188.904297,175.610352 C184.998027,175.610352 181.812024,174.31235 179.346191,171.716309 C176.880359,169.120267 175.647461,165.755229 175.647461,161.621094 C175.647461,157.600891 176.733876,154.305026 178.906738,151.733398 C181.079601,149.161771 183.858707,147.875977 187.244141,147.875977 C190.450537,147.875977 192.928539,149.015288 194.678223,151.293945 C196.427906,153.572603 197.302734,156.811502 197.302734,161.010742 L197.27832,162.5 L180.554688,162.5 C181.254561,168.79886 184.33884,171.948242 189.807617,171.948242 C191.80958,171.948242 194.267238,171.411138 197.180664,170.336914 L197.180664,174.145508 Z M180.774414,158.886719 L192.46875,158.886719 C192.46875,153.955053 190.629576,151.489258 186.951172,151.489258 C183.256492,151.489258 181.197593,153.955053 180.774414,158.886719 L180.774414,158.886719 Z" id="false" sketch:type="MSShapeGroup"></path>
        </g>
    </g>
</svg>