<?xml version="1.0" encoding="UTF-8" standalone="no"?>
<svg width="260px" height="260px" viewBox="0 0 260 260" version="1.1" xmlns="http://www.w3.org/2000/svg" xmlns:xlink="http://www.w3.org/1999/xlink" xmlns:sketch="http://www.bohemiancoding.com/sketch/ns">
    <!-- Generator: Sketch 3.4.4 (17249) - http://www.bohemiancoding.com/sketch -->
    <title>Slice 1</title>
    <desc>Created with Sketch.</desc>
    <defs></defs>
    <g id="Page-1" stroke="none" stroke-width="1" fill="none" fill-rule="evenodd" sketch:type="MSPage">
        <g id="Null" sketch:type="MSLayerGroup" transform="translate(61.000000, 87.000000)" fill="#D8D8D8">
            <path d="M0.176269531,66 L0.176269531,20.9267578 L8.35253906,20.9267578 L8.35253906,29.3935547 C12.6689669,23.0849294 17.9537448,19.9306641 24.2070312,19.9306641 C28.1084179,19.9306641 31.2211798,21.1688516 33.5454102,23.6452637 C35.8696405,26.1216758 37.0317383,29.4488723 37.0317383,33.6269531 L37.0317383,66 L28.8554688,66 L28.8554688,36.2832031 C28.8554688,32.9352046 28.3643441,30.5487539 27.3820801,29.1237793 C26.3998161,27.6988047 24.7742626,26.9863281 22.5053711,26.9863281 C17.497208,26.9863281 12.7796445,30.2651039 8.35253906,36.8227539 L8.35253906,66 L0.176269531,66 Z M81.1088867,66 L81.1088867,57.5332031 C76.7647895,63.8694978 71.4938461,67.0375977 65.2958984,67.0375977 C61.3668423,67.0375977 58.240246,65.7994102 55.9160156,63.322998 C53.5917853,60.8465859 52.4296875,57.5055549 52.4296875,53.2998047 L52.4296875,20.9267578 L60.605957,20.9267578 L60.605957,50.6435547 C60.605957,54.0192226 61.0970817,56.4195078 62.0793457,57.8444824 C63.0616097,59.269457 64.7009976,59.9819336 66.9975586,59.9819336 C71.9780522,59.9819336 76.6817813,56.7031578 81.1088867,50.1455078 L81.1088867,20.9267578 L89.2851562,20.9267578 L89.2851562,66 L81.1088867,66 Z M105.679199,66 L105.679199,0.465332031 L113.855469,0.465332031 L113.855469,66 L105.679199,66 Z M130.249512,66 L130.249512,0.465332031 L138.425781,0.465332031 L138.425781,66 L130.249512,66 Z" id="null" sketch:type="MSShapeGroup"></path>
        </g>
    </g>
</svg>