<?xml version="1.0" encoding="UTF-8" standalone="no"?>
<svg width="260px" height="260px" viewBox="0 0 260 260" version="1.1" xmlns="http://www.w3.org/2000/svg" xmlns:xlink="http://www.w3.org/1999/xlink" xmlns:sketch="http://www.bohemiancoding.com/sketch/ns">
    <!-- Generator: Sketch 3.4.4 (17249) - http://www.bohemiancoding.com/sketch -->
    <title>Slice 1</title>
    <desc>Created with Sketch.</desc>
    <defs></defs>
    <g id="Page-1" stroke="none" stroke-width="1" fill="none" fill-rule="evenodd" sketch:type="MSPage">
        <g id="Slice-1-+-Rectangle-1" sketch:type="MSLayerGroup"></g>
        <g id="Object" sketch:type="MSLayerGroup" transform="translate(20.000000, 20.000000)" fill="#D8D8D8">
            <path d="M50.9278648,14.2241379 L50.9278648,0 L37.4335987,0 C34.9917669,0 32.5499717,0.671688685 30.1081399,2.01508621 C27.6663081,3.35848373 25.4494151,5.33403869 23.4573945,7.94181034 C21.4653738,10.549582 19.8268007,13.7894921 18.5416261,17.6616379 C17.2564515,21.5337837 16.6138738,25.9985379 16.6138738,31.0560345 L16.6138738,74.2025862 C16.6138738,78.3118022 16.1640694,82.1048677 15.2644472,85.5818966 C14.3648249,89.0589254 13.1760562,92.0222579 11.6981054,94.4719828 C10.2201546,96.9217077 8.51732373,98.8182404 6.58956178,100.161638 C4.66179984,101.505035 2.66980904,102.176724 0.613529634,102.176724 L0.613529634,118.297414 C2.66980904,118.297414 4.66179984,118.929591 6.58956178,120.193966 C8.51732373,121.45834 10.2201546,123.27585 11.6981054,125.646552 C13.1760562,128.017253 14.3648249,130.941075 15.2644472,134.418103 C16.1640694,137.895132 16.6138738,141.76722 16.6138738,146.034483 L16.6138738,188.943966 C16.6138738,194.001462 17.2564515,198.466216 18.5416261,202.338362 C19.8268007,206.210508 21.4653738,209.450418 23.4573945,212.05819 C25.4494151,214.665961 27.6663081,216.641516 30.1081399,217.984914 C32.5499717,219.328311 34.9917669,220 37.4335987,220 L50.9278648,220 L50.9278648,205.775862 L41.2891033,205.775862 C39.3613414,205.775862 37.8191549,205.183196 36.6624978,203.997845 C35.5058406,202.812494 34.574103,201.23205 33.8672569,199.256466 C33.1604109,197.280881 32.6784776,195.068259 32.4214427,192.618534 C32.1644078,190.16881 32.0358922,187.758633 32.0358922,185.387931 L32.0358922,142.241379 C32.0358922,136.235602 31.3611857,131.257204 30.0117523,127.306034 C28.6623189,123.354865 27.0880036,120.154466 25.2887592,117.704741 C23.4895147,115.255016 21.6581683,113.477017 19.7946651,112.37069 C17.9311619,111.264362 16.4211043,110.632185 15.2644472,110.474138 L15.2644472,109.762931 C16.4211043,109.446838 17.9311619,108.656616 19.7946651,107.392241 C21.6581683,106.127867 23.4895147,104.231334 25.2887592,101.702586 C27.0880036,99.1738379 28.6623189,95.9734389 30.0117523,92.1012931 C31.3611857,88.2291473 32.0358922,83.5273265 32.0358922,77.9956897 L32.0358922,34.612069 C32.0358922,32.0833207 32.1644078,29.5941214 32.4214427,27.1443966 C32.6784776,24.6946717 33.1604109,22.5215612 33.8672569,20.625 C34.574103,18.7284388 35.5058406,17.1875059 36.6624978,16.0021552 C37.8191549,14.8168044 39.3613414,14.2241379 41.2891033,14.2241379 L50.9278648,14.2241379 Z" id="{" sketch:type="MSShapeGroup"></path>
            <path d="M169.240135,14.2241379 L169.240135,0 L182.734401,0 C185.176233,0 187.618028,0.671688685 190.05986,2.01508621 C192.501692,3.35848373 194.718585,5.33403869 196.710606,7.94181034 C198.702626,10.549582 200.341199,13.7894921 201.626374,17.6616379 C202.911549,21.5337837 203.554126,25.9985379 203.554126,31.0560345 L203.554126,74.2025862 C203.554126,78.3118022 204.003931,82.1048677 204.903553,85.5818966 C205.803175,89.0589254 206.991944,92.0222579 208.469895,94.4719828 C209.947845,96.9217077 211.650676,98.8182404 213.578438,100.161638 C215.5062,101.505035 217.498191,102.176724 219.55447,102.176724 L219.55447,118.297414 C217.498191,118.297414 215.5062,118.929591 213.578438,120.193966 C211.650676,121.45834 209.947845,123.27585 208.469895,125.646552 C206.991944,128.017253 205.803175,130.941075 204.903553,134.418103 C204.003931,137.895132 203.554126,141.76722 203.554126,146.034483 L203.554126,188.943966 C203.554126,194.001462 202.911549,198.466216 201.626374,202.338362 C200.341199,206.210508 198.702626,209.450418 196.710606,212.05819 C194.718585,214.665961 192.501692,216.641516 190.05986,217.984914 C187.618028,219.328311 185.176233,220 182.734401,220 L169.240135,220 L169.240135,205.775862 L178.878897,205.775862 C180.806659,205.775862 182.348845,205.183196 183.505502,203.997845 C184.662159,202.812494 185.593897,201.23205 186.300743,199.256466 C187.007589,197.280881 187.489522,195.068259 187.746557,192.618534 C188.003592,190.16881 188.132108,187.758633 188.132108,185.387931 L188.132108,142.241379 C188.132108,136.235602 188.806814,131.257204 190.156248,127.306034 C191.505681,123.354865 193.079996,120.154466 194.879241,117.704741 C196.678485,115.255016 198.509832,113.477017 200.373335,112.37069 C202.236838,111.264362 203.746896,110.632185 204.903553,110.474138 L204.903553,109.762931 C203.746896,109.446838 202.236838,108.656616 200.373335,107.392241 C198.509832,106.127867 196.678485,104.231334 194.879241,101.702586 C193.079996,99.1738379 191.505681,95.9734389 190.156248,92.1012931 C188.806814,88.2291473 188.132108,83.5273265 188.132108,77.9956897 L188.132108,34.612069 C188.132108,32.0833207 188.003592,29.5941214 187.746557,27.1443966 C187.489522,24.6946717 187.007589,22.5215612 186.300743,20.625 C185.593897,18.7284388 184.662159,17.1875059 183.505502,16.0021552 C182.348845,14.8168044 180.806659,14.2241379 178.878897,14.2241379 L169.240135,14.2241379 Z" id="{" sketch:type="MSShapeGroup"></path>
        </g>
    </g>
</svg>