<?xml version="1.0" encoding="UTF-8" standalone="no"?>
<svg width="260px" height="260px" viewBox="0 0 260 260" version="1.1" xmlns="http://www.w3.org/2000/svg" xmlns:xlink="http://www.w3.org/1999/xlink" xmlns:sketch="http://www.bohemiancoding.com/sketch/ns">
    <!-- Generator: Sketch 3.4.4 (17249) - http://www.bohemiancoding.com/sketch -->
    <title>Slice 1</title>
    <desc>Created with Sketch.</desc>
    <defs></defs>
    <g id="Page-1" stroke="none" stroke-width="1" fill="none" fill-rule="evenodd" sketch:type="MSPage">
        <g id="Slice-1-+-Rectangle-1" sketch:type="MSLayerGroup"></g>
        <g id="Server" sketch:type="MSLayerGroup" transform="translate(17.000000, 24.000000)" fill="#D8D8D8">
            <g id="Left-Arrow-Copy-+-Left-Arrow-Copy-+-Oval-1" transform="translate(0.000000, 150.000000)" sketch:type="MSShapeGroup">
                <path d="M226,0.301921846 L0.307178569,0.301921846 L0.307178569,62.394793 L226,62.394793 L226,0.301921846 Z M173,19 L13,19 L13,44.0464356 L173,44.0464356 L173,19 Z M195.5,44 C202.403559,44 208,38.4035594 208,31.5 C208,24.5964406 202.403559,19 195.5,19 C188.596441,19 183,24.5964406 183,31.5 C183,38.4035594 188.596441,44 195.5,44 Z" id="Left-Arrow-Copy"></path>
            </g>
            <g id="Left-Arrow-Copy-+-Left-Arrow-Copy-+-Oval-1" transform="translate(0.000000, 75.000000)" sketch:type="MSShapeGroup">
                <path d="M226,0.301921846 L0.307178569,0.301921846 L0.307178569,62.394793 L226,62.394793 L226,0.301921846 Z M173,19 L13,19 L13,44.0464356 L173,44.0464356 L173,19 Z M195.5,44 C202.403559,44 208,38.4035594 208,31.5 C208,24.5964406 202.403559,19 195.5,19 C188.596441,19 183,24.5964406 183,31.5 C183,38.4035594 188.596441,44 195.5,44 Z" id="Left-Arrow-Copy"></path>
            </g>
            <g id="Left-Arrow-Copy-+-Left-Arrow-Copy-+-Oval-1" sketch:type="MSShapeGroup">
                <path d="M226,0.301921846 L0.307178569,0.301921846 L0.307178569,62.394793 L226,62.394793 L226,0.301921846 Z M173,19 L13,19 L13,44.0464356 L173,44.0464356 L173,19 Z M195.5,44 C202.403559,44 208,38.4035594 208,31.5 C208,24.5964406 202.403559,19 195.5,19 C188.596441,19 183,24.5964406 183,31.5 C183,38.4035594 188.596441,44 195.5,44 Z" id="Left-Arrow-Copy"></path>
            </g>
        </g>
    </g>
</svg>