<?xml version="1.0" encoding="UTF-8" standalone="no"?>
<svg width="312px" height="300px" viewBox="0 0 312 300" version="1.1" xmlns="http://www.w3.org/2000/svg" xmlns:xlink="http://www.w3.org/1999/xlink" xmlns:sketch="http://www.bohemiancoding.com/sketch/ns">
    <!-- Generator: Sketch 3.4.4 (17249) - http://www.bohemiancoding.com/sketch -->
    <title>Slice 1</title>
    <desc>Created with Sketch.</desc>
    <defs></defs>
    <g id="Page-1" stroke="none" stroke-width="1" fill="none" fill-rule="evenodd" sketch:type="MSPage">
        <g id="Slice-1-+-Rectangle-1" sketch:type="MSLayerGroup"></g>
        <g id="Server" sketch:type="MSLayerGroup" transform="translate(17.000000, 24.000000)" fill="#D8D8D8">
            <g id="Left-Arrow-Copy-+-Left-Arrow-Copy-+-Oval-1" transform="translate(0.000000, 150.000000)" sketch:type="MSShapeGroup">
                <path d="M226,0.301921846 L0.307178569,0.301921846 L0.307178569,62.394793 L226,62.394793 L226,0.301921846 Z M173,19 L13,19 L13,44.0464356 L173,44.0464356 L173,19 Z M195.5,44 C202.403559,44 208,38.4035594 208,31.5 C208,24.5964406 202.403559,19 195.5,19 C188.596441,19 183,24.5964406 183,31.5 C183,38.4035594 188.596441,44 195.5,44 Z" id="Left-Arrow-Copy"></path>
            </g>
            <g id="Left-Arrow-Copy-+-Left-Arrow-Copy-+-Oval-1" transform="translate(0.000000, 75.000000)" sketch:type="MSShapeGroup">
                <path d="M226,0.301921846 L0.307178569,0.301921846 L0.307178569,62.394793 L226,62.394793 L226,0.301921846 Z M173,19 L13,19 L13,44.0464356 L173,44.0464356 L173,19 Z M195.5,44 C202.403559,44 208,38.4035594 208,31.5 C208,24.5964406 202.403559,19 195.5,19 C188.596441,19 183,24.5964406 183,31.5 C183,38.4035594 188.596441,44 195.5,44 Z" id="Left-Arrow-Copy"></path>
            </g>
            <g id="Left-Arrow-Copy-+-Left-Arrow-Copy-+-Oval-1" sketch:type="MSShapeGroup">
                <path d="M226,0.301921846 L0.307178569,0.301921846 L0.307178569,62.394793 L226,62.394793 L226,0.301921846 Z M173,19 L13,19 L13,44.0464356 L173,44.0464356 L173,19 Z M195.5,44 C202.403559,44 208,38.4035594 208,31.5 C208,24.5964406 202.403559,19 195.5,19 C188.596441,19 183,24.5964406 183,31.5 C183,38.4035594 188.596441,44 195.5,44 Z" id="Left-Arrow-Copy"></path>
            </g>
        </g>
        <g id="Server-Add" sketch:type="MSLayerGroup" transform="translate(17.000000, 24.000000)">
            <g id="Left-Arrow-Copy-+-Left-Arrow-Copy-+-Oval-1" transform="translate(0.000000, 149.768268)" fill="#D8D8D8" sketch:type="MSShapeGroup">
                <path d="M225.966942,0.301455413 L0.307133637,0.301455413 L0.307133637,62.2984004 L225.966942,62.2984004 L225.966942,0.301455413 Z M172.974695,18.9706472 L12.9980984,18.9706472 L12.9980984,43.978389 L172.974695,43.978389 L172.974695,18.9706472 Z M195.471403,43.9320252 C202.373953,43.9320252 207.969575,38.3442304 207.969575,31.4513362 C207.969575,24.558442 202.373953,18.9706472 195.471403,18.9706472 C188.568854,18.9706472 182.973232,24.558442 182.973232,31.4513362 C182.973232,38.3442304 188.568854,43.9320252 195.471403,43.9320252 Z" id="Left-Arrow-Copy"></path>
            </g>
            <g id="Left-Arrow-Copy-+-Left-Arrow-Copy-+-Oval-1" transform="translate(0.000000, 74.884134)" fill="#D8D8D8" sketch:type="MSShapeGroup">
                <path d="M225.966942,0.301455413 L0.307133637,0.301455413 L0.307133637,62.2984004 L225.966942,62.2984004 L225.966942,0.301455413 Z M172.974695,18.9706472 L12.9980984,18.9706472 L12.9980984,43.978389 L172.974695,43.978389 L172.974695,18.9706472 Z M195.471403,43.9320252 C202.373953,43.9320252 207.969575,38.3442304 207.969575,31.4513362 C207.969575,24.558442 202.373953,18.9706472 195.471403,18.9706472 C188.568854,18.9706472 182.973232,24.558442 182.973232,31.4513362 C182.973232,38.3442304 188.568854,43.9320252 195.471403,43.9320252 Z" id="Left-Arrow-Copy"></path>
            </g>
            <g id="Left-Arrow-Copy-+-Left-Arrow-Copy-+-Oval-1" fill="#D8D8D8" sketch:type="MSShapeGroup">
                <path d="M225.966942,0.301455413 L0.307133637,0.301455413 L0.307133637,62.2984004 L225.966942,62.2984004 L225.966942,0.301455413 Z M172.974695,18.9706472 L12.9980984,18.9706472 L12.9980984,43.978389 L172.974695,43.978389 L172.974695,18.9706472 Z M195.471403,43.9320252 C202.373953,43.9320252 207.969575,38.3442304 207.969575,31.4513362 C207.969575,24.558442 202.373953,18.9706472 195.471403,18.9706472 C188.568854,18.9706472 182.973232,24.558442 182.973232,31.4513362 C182.973232,38.3442304 188.568854,43.9320252 195.471403,43.9320252 Z" id="Left-Arrow-Copy"></path>
            </g>
            <ellipse id="Oval-7" fill="#D8D8D8" sketch:type="MSShapeGroup" cx="206.209021" cy="193.702991" rx="72.7909793" ry="75.2970085"></ellipse>
            <path d="M193.75493,179.406091 L159.217376,179.406091 L159.217376,207.999892 L193.75493,207.999892 L193.75493,242.537446 L222.348731,242.537446 L222.348731,207.999892 L256.886285,207.999892 L256.886285,179.406091 L222.348731,179.406091 L222.348731,144.868537 L193.75493,144.868537 L193.75493,179.406091 Z" id="Rectangle-20" fill="#FFFFFF" sketch:type="MSShapeGroup"></path>
        </g>
    </g>
</svg>