<?xml version="1.0" encoding="UTF-8" standalone="no"?>
<svg width="260px" height="260px" viewBox="0 0 260 260" version="1.1" xmlns="http://www.w3.org/2000/svg" xmlns:xlink="http://www.w3.org/1999/xlink" xmlns:sketch="http://www.bohemiancoding.com/sketch/ns">
    <!-- Generator: Sketch 3.4.4 (17249) - http://www.bohemiancoding.com/sketch -->
    <title>Slice 1</title>
    <desc>Created with Sketch.</desc>
    <defs></defs>
    <g id="Page-1" stroke="none" stroke-width="1" fill="none" fill-rule="evenodd" sketch:type="MSPage">
        <g id="String" sketch:type="MSLayerGroup" transform="translate(30.000000, 40.000000)" fill="#D8D8D8">
            <path d="M149.683615,93.2910133 C149.683615,99.9160474 153.61717,103.435544 161.484398,103.849609 L173.906275,104.470702 C182.187567,104.884767 189.537104,108.818322 195.955106,116.271485 C202.373108,123.724649 205.58206,132.212846 205.58206,141.736333 C205.58206,153.330142 201.441476,163.060515 193.160184,170.927743 C184.878891,178.794971 174.52743,182.728526 162.105492,182.728526 C147.61323,182.728526 135.70905,177.035223 126.392596,165.648445 C117.076142,154.261668 112.417985,139.666109 112.417985,121.86133 C112.417985,88.7361595 125.460825,54.7833693 151.546896,20.0019405 C161.070383,7.16593697 169.351551,0.748031496 176.39065,0.748031496 C184.257878,0.748031496 188.191433,4.88861567 188.191433,13.1699082 C188.191433,16.4824253 185.914112,21.0370679 181.359401,26.8339727 C170.179656,40.9121701 160.863341,57.681536 153.410178,77.1425735 C150.92579,83.7676076 149.683615,89.150367 149.683615,93.2910133 L149.683615,93.2910133 Z M48.4453193,103.849609 L60.8671961,104.470702 C69.5625533,104.884767 77.1191194,108.818322 83.5371212,116.271485 C89.9551229,123.724649 93.1640756,132.212846 93.1640756,141.736333 C93.1640756,153.330142 89.0234915,163.060515 80.7421989,170.927743 C72.4609063,178.794971 62.1094459,182.728526 49.687507,182.728526 C35.195245,182.728526 23.2910655,177.035223 13.9746113,165.648445 C4.6581572,154.261668 0,139.666109 0,121.86133 C0,88.7361595 13.0428402,54.7833693 39.1289118,20.0019405 C48.6523982,7.16593697 56.9335666,0.748031496 63.9726653,0.748031496 C71.8398932,0.748031496 75.7734482,4.88861567 75.7734482,13.1699082 C75.7734482,16.4824253 73.4961269,21.0370679 68.941416,26.8339727 C60.6601234,37.1855884 53.2070719,49.1932825 46.5820378,62.8574153 C39.9570038,76.521548 36.6445364,86.6659792 36.6445364,93.2910133 C36.6445364,99.9160474 40.5780914,103.435544 48.4453193,103.849609 Z" id="“" sketch:type="MSShapeGroup"></path>
        </g>
    </g>
</svg>